ply
format ascii 1.0
comment Created by Blender 2.80 (sub 41) - www.blender.org, source file: ''
element vertex 166
property float x
property float y
property float z
property float nx
property float ny
property float nz
property float s
property float t
element face 96
property list uchar uint vertex_indices
end_header
-0.000000 -0.127491 0.127491 0.382683 -0.923880 0.000000 1.000000 0.500000
-0.000000 -0.127491 -0.127491 0.382683 -0.923880 0.000000 1.000000 1.000000
0.090150 -0.090150 -0.127491 0.382683 -0.923880 0.000000 0.875000 1.000000
0.090150 -0.090150 0.127491 0.382683 -0.923880 0.000000 0.875000 0.500000
0.090150 -0.090150 0.127491 0.923880 -0.382683 0.000000 0.875000 0.500000
0.090150 -0.090150 -0.127491 0.923880 -0.382683 0.000000 0.875000 1.000000
0.127491 0.000000 -0.127491 0.923880 -0.382683 0.000000 0.750000 1.000000
0.127491 0.000000 0.127491 0.923880 -0.382683 0.000000 0.750000 0.500000
0.127491 0.000000 0.127491 0.923880 0.382683 -0.000000 0.750000 0.500000
0.127491 0.000000 -0.127491 0.923880 0.382683 -0.000000 0.750000 1.000000
0.090150 0.090150 -0.127491 0.923880 0.382683 -0.000000 0.625000 1.000000
0.090150 0.090150 0.127491 0.923880 0.382683 -0.000000 0.625000 0.500000
0.090150 0.090150 0.127491 0.382684 0.923879 -0.000000 0.625000 0.500000
0.090150 0.090150 -0.127491 0.382684 0.923879 -0.000000 0.625000 1.000000
-0.000000 0.127491 -0.127491 0.382684 0.923879 -0.000000 0.500000 1.000000
0.090150 0.090150 0.127491 0.382683 0.923880 0.000000 0.625000 0.500000
-0.000000 0.127491 -0.127491 0.382683 0.923880 0.000000 0.500000 1.000000
-0.000000 0.127491 0.127491 0.382683 0.923880 0.000000 0.500000 0.500000
-0.000000 0.127491 0.127491 -0.382684 0.923879 0.000000 0.500000 0.500000
-0.000000 0.127491 -0.127491 -0.382684 0.923879 0.000000 0.500000 1.000000
-0.090150 0.090150 -0.127491 -0.382684 0.923879 0.000000 0.375000 1.000000
-0.090150 0.090150 0.127491 -0.382684 0.923879 0.000000 0.375000 0.500000
-0.090150 0.090150 0.127491 -0.923880 0.382683 0.000000 0.375000 0.500000
-0.090150 0.090150 -0.127491 -0.923880 0.382683 0.000000 0.375000 1.000000
-0.127491 0.000000 -0.127491 -0.923880 0.382683 0.000000 0.250000 1.000000
-0.127491 0.000000 0.127491 -0.923880 0.382683 0.000000 0.250000 0.500000
0.127491 0.000000 -0.127491 0.000000 0.000000 -1.000000 0.490000 0.250000
0.090150 -0.090150 -0.127491 0.000000 0.000000 -1.000000 0.419706 0.419706
-0.000000 -0.127491 -0.127491 0.000000 0.000000 -1.000000 0.250000 0.490000
-0.090150 -0.090150 -0.127491 0.000000 0.000000 -1.000000 0.080294 0.419706
-0.127491 0.000000 -0.127491 0.000000 0.000000 -1.000000 0.010000 0.250000
-0.090150 0.090150 -0.127491 0.000000 0.000000 -1.000000 0.080294 0.080294
-0.000000 0.127491 -0.127491 0.000000 0.000000 -1.000000 0.250000 0.010000
0.090150 0.090150 -0.127491 0.000000 0.000000 -1.000000 0.419706 0.080294
-0.127491 0.000000 0.127491 -0.923880 -0.382683 0.000000 0.250000 0.500000
-0.127491 0.000000 -0.127491 -0.923880 -0.382683 0.000000 0.250000 1.000000
-0.090150 -0.090150 -0.127491 -0.923880 -0.382683 0.000000 0.125000 1.000000
-0.090150 -0.090150 0.127491 -0.923880 -0.382683 -0.000000 0.125000 0.500000
-0.090150 -0.090150 0.127491 -0.382683 -0.923880 0.000000 0.125000 0.500000
-0.090150 -0.090150 -0.127491 -0.382683 -0.923880 0.000000 0.125000 1.000000
-0.000000 -0.127491 -0.127491 -0.382683 -0.923880 0.000000 0.000000 1.000000
-0.000000 -0.127491 0.127491 -0.382683 -0.923880 -0.000000 0.000000 0.500000
-0.090150 -0.090150 0.127491 0.000000 0.000000 1.000000 0.580294 0.419706
-0.000000 -0.127491 0.127491 0.000000 0.000000 1.000000 0.750000 0.490000
0.090150 -0.090150 0.127491 0.000000 0.000000 1.000000 0.919706 0.419706
0.127491 0.000000 0.127491 0.000000 0.000000 1.000000 0.990000 0.250000
0.090150 0.090150 0.127491 0.000000 0.000000 1.000000 0.919706 0.080294
-0.000000 0.127491 0.127491 -0.000000 0.000000 1.000000 0.750000 0.010000
-0.090150 0.090150 0.127491 -0.000000 0.000000 1.000000 0.580294 0.080294
-0.127491 0.000000 0.127491 0.000000 -0.000000 1.000000 0.510000 0.250000
-0.130835 0.213721 0.130835 -1.000000 0.000000 0.000000 0.375000 0.000000
-0.130835 0.849482 0.130835 -1.000000 0.000000 0.000000 0.625000 0.000000
-0.130835 0.849482 -0.130835 -1.000000 0.000000 0.000000 0.625000 0.250000
-0.130835 0.213721 -0.130835 -1.000000 0.000000 0.000000 0.375000 0.250000
-0.130835 0.213721 -0.130835 -0.000000 -0.000000 -1.000000 0.375000 0.250000
-0.130835 0.849482 -0.130835 -0.000000 -0.000000 -1.000000 0.625000 0.250000
0.130835 0.849482 -0.130835 -0.000000 -0.000000 -1.000000 0.625000 0.500000
0.130835 0.213721 -0.130835 -0.000000 0.000000 -1.000000 0.375000 0.500000
0.130835 0.213721 -0.130835 1.000000 0.000000 0.000000 0.375000 0.500000
0.130835 0.849482 -0.130835 1.000000 0.000000 0.000000 0.625000 0.500000
0.130835 0.849482 0.130835 1.000000 0.000000 0.000000 0.625000 0.750000
0.130835 0.213721 0.130835 1.000000 -0.000000 0.000000 0.375000 0.750000
0.130835 0.213721 0.130835 -0.000000 0.000000 1.000000 0.375000 0.750000
0.130835 0.849482 0.130835 -0.000000 0.000000 1.000000 0.625000 0.750000
-0.130835 0.849482 0.130835 -0.000000 0.000000 1.000000 0.625000 1.000000
-0.130835 0.213721 0.130835 -0.000000 0.000000 1.000000 0.375000 1.000000
-0.130835 0.213721 -0.130835 -0.000000 -1.000000 -0.000000 0.125000 0.500000
0.130835 0.213721 -0.130835 -0.000000 -1.000000 -0.000000 0.375000 0.500000
0.130835 0.213721 0.130835 -0.000000 -1.000000 -0.000000 0.375000 0.750000
-0.130835 0.213721 0.130835 0.000000 -1.000000 -0.000000 0.125000 0.750000
-0.057819 1.041338 -0.130835 0.000000 -0.000000 -1.000000 0.625000 0.250000
0.153164 0.933271 -0.130835 -0.000000 -0.000000 -1.000000 0.625000 0.500000
0.522607 1.307462 0.130835 0.911833 -0.410560 -0.000000 0.625000 0.750000
0.522607 1.307462 -0.130835 0.911833 -0.410560 -0.000000 0.625000 0.500000
0.733456 1.775748 -0.130835 0.911833 -0.410560 -0.000000 0.625000 0.500000
0.522607 1.307462 0.130835 0.911834 -0.410560 0.000000 0.625000 0.750000
0.733456 1.775748 -0.130835 0.911834 -0.410560 0.000000 0.625000 0.500000
0.733456 1.775748 0.130835 0.911834 -0.410560 0.000000 0.625000 0.750000
0.130835 0.849482 0.130835 0.966278 -0.257499 0.000000 0.625000 0.750000
0.130835 0.849482 -0.130835 0.966278 -0.257499 0.000000 0.625000 0.500000
0.153164 0.933271 -0.130835 0.966278 -0.257499 0.000000 0.625000 0.500000
0.130835 0.849482 0.130835 0.966278 -0.257500 -0.000000 0.625000 0.750000
0.153164 0.933271 -0.130835 0.966278 -0.257500 -0.000000 0.625000 0.500000
0.153164 0.933271 0.130835 0.966278 -0.257500 -0.000000 0.625000 0.750000
-0.130835 0.849482 -0.130835 -0.934603 0.355693 0.000000 0.625000 0.250000
-0.130835 0.849482 0.130835 -0.934603 0.355693 0.000000 0.625000 0.000000
-0.057818 1.041338 0.130835 -0.934603 0.355693 0.000000 0.625000 0.000000
-0.057819 1.041338 -0.130835 -0.934603 0.355693 0.000000 0.625000 0.250000
0.153164 0.933271 0.130835 0.000000 0.000000 1.000000 0.625000 0.750000
-0.057818 1.041338 0.130835 0.000000 -0.000000 1.000000 0.625000 1.000000
0.407944 2.278407 -0.130835 -0.300500 -0.953782 -0.000000 0.625000 0.250000
0.407944 2.278407 0.130835 -0.300500 -0.953782 -0.000000 0.625000 0.000000
0.005127 2.405319 0.130835 -0.300500 -0.953782 -0.000000 0.625000 0.000000
0.407944 2.278407 -0.130835 -0.300501 -0.953782 -0.000001 0.625000 0.250000
0.005127 2.405319 0.130835 -0.300501 -0.953782 -0.000001 0.625000 0.000000
0.005127 2.405319 -0.130835 -0.300501 -0.953782 -0.000001 0.625000 0.250000
0.340472 1.426976 -0.130835 -0.903988 0.427557 -0.000000 0.625000 0.250000
0.340472 1.426976 0.130835 -0.903988 0.427557 -0.000000 0.625000 0.000000
0.523631 1.814230 0.130835 -0.903988 0.427557 -0.000000 0.625000 0.000000
0.523631 1.814230 -0.130835 -0.903988 0.427557 -0.000000 0.625000 0.250000
0.340472 1.426976 0.130835 0.000000 -0.000000 1.000000 0.625000 1.000000
0.522607 1.307462 0.130835 0.000000 -0.000000 1.000000 0.625000 0.750000
0.733456 1.775748 0.130835 0.000000 -0.000000 1.000000 0.625000 0.750000
0.523631 1.814230 0.130835 0.000000 0.000000 1.000000 0.625000 1.000000
0.522607 1.307462 -0.130835 -0.000000 -0.000000 -1.000000 0.625000 0.500000
0.340472 1.426976 -0.130835 -0.000000 -0.000000 -1.000000 0.625000 0.250000
0.523631 1.814230 -0.130835 -0.000000 -0.000000 -1.000000 0.625000 0.250000
0.733456 1.775748 -0.130835 -0.000000 -0.000000 -1.000000 0.625000 0.500000
-0.424131 2.274657 0.130835 -0.000000 -0.000000 1.000000 0.625000 1.000000
-0.544364 2.400035 0.130835 -0.000000 -0.000000 1.000000 0.625000 0.750000
-0.781614 1.923439 0.130835 -0.000000 -0.000000 1.000000 0.625000 0.750000
-0.620949 1.843192 0.130835 -0.000000 -0.000000 1.000000 0.625000 1.000000
0.407944 2.278407 0.130835 -0.000000 -0.000000 1.000000 0.625000 1.000000
0.570945 2.424179 0.130835 -0.000000 -0.000000 1.000000 0.625000 0.750000
-0.010868 2.580386 0.130835 -0.000000 -0.000000 1.000000 0.625000 0.750000
0.005127 2.405319 0.130835 0.000000 0.000000 1.000000 0.625000 1.000000
0.570945 2.424179 -0.130835 -0.000000 0.000000 -1.000000 0.625000 0.500000
0.407944 2.278407 -0.130835 -0.000000 0.000000 -1.000000 0.625000 0.250000
0.005127 2.405319 -0.130835 -0.000000 0.000000 -1.000000 0.625000 0.250000
-0.010868 2.580386 -0.130835 0.000000 0.000000 -1.000000 0.625000 0.500000
0.570945 2.424179 0.130835 0.259300 0.965797 0.000001 0.625000 0.750000
0.570945 2.424179 -0.130835 0.259300 0.965797 0.000001 0.625000 0.500000
-0.010868 2.580386 -0.130835 0.259300 0.965797 0.000001 0.625000 0.500000
-0.010868 2.580386 0.130835 0.259300 0.965797 0.000001 0.625000 0.750000
-0.781614 1.923439 -0.130835 -0.446835 -0.894617 -0.000000 0.625000 0.500000
-0.620949 1.843192 -0.130835 -0.446835 -0.894617 -0.000000 0.875000 0.500000
-0.620949 1.843192 0.130835 -0.446835 -0.894617 -0.000000 0.875000 0.750000
-0.781614 1.923439 0.130835 -0.446835 -0.894617 0.000000 0.625000 0.750000
-0.544364 2.400036 -0.130835 0.000000 0.000000 -1.000000 0.625000 0.500000
-0.424131 2.274657 -0.130835 0.000000 0.000000 -1.000000 0.625000 0.250000
-0.620949 1.843192 -0.130835 0.000000 0.000000 -1.000000 0.625000 0.250000
-0.781614 1.923439 -0.130835 0.000000 0.000000 -1.000000 0.625000 0.500000
-0.544364 2.400035 0.130835 -0.895213 0.445638 0.000001 0.625000 0.750000
-0.544364 2.400036 -0.130835 -0.895213 0.445638 0.000001 0.625000 0.500000
-0.781614 1.923439 -0.130835 -0.895213 0.445638 0.000001 0.625000 0.500000
-0.781614 1.923439 0.130835 -0.895213 0.445638 0.000001 0.625000 0.750000
-0.424131 2.274657 -0.130835 0.909811 -0.415022 -0.000001 0.625000 0.250000
-0.424131 2.274657 0.130835 0.909811 -0.415022 -0.000001 0.625000 0.000000
-0.620949 1.843192 0.130835 0.909811 -0.415022 -0.000001 0.625000 0.000000
-0.620949 1.843192 -0.130835 0.909811 -0.415022 -0.000001 0.625000 0.250000
0.005127 2.405319 -0.130835 0.291200 -0.956662 -0.000001 0.625000 0.250000
0.005127 2.405319 0.130835 0.291200 -0.956662 -0.000001 0.625000 0.000000
-0.424131 2.274657 0.130835 0.291200 -0.956662 -0.000001 0.625000 0.000000
-0.424131 2.274657 -0.130835 0.291200 -0.956662 -0.000001 0.625000 0.250000
-0.010868 2.580386 0.130835 -0.320249 0.947333 0.000001 0.625000 0.750000
-0.010868 2.580386 -0.130835 -0.320249 0.947333 0.000001 0.625000 0.500000
-0.544364 2.400036 -0.130835 -0.320249 0.947333 0.000001 0.625000 0.500000
-0.010868 2.580386 0.130835 -0.320250 0.947333 0.000001 0.625000 0.750000
-0.544364 2.400036 -0.130835 -0.320250 0.947333 0.000001 0.625000 0.500000
-0.544364 2.400035 0.130835 -0.320250 0.947333 0.000001 0.625000 0.750000
0.733456 1.775748 0.130835 0.970000 0.243103 -0.000000 0.625000 0.750000
0.733456 1.775748 -0.130835 0.970000 0.243103 -0.000000 0.625000 0.500000
0.570945 2.424179 -0.130835 0.970000 0.243103 -0.000000 0.625000 0.500000
0.570945 2.424179 0.130835 0.970000 0.243103 0.000000 0.625000 0.750000
0.523631 1.814230 -0.130835 -0.970318 -0.241832 -0.000000 0.625000 0.250000
0.523631 1.814230 0.130835 -0.970318 -0.241832 -0.000000 0.625000 0.000000
0.407944 2.278407 0.130835 -0.970318 -0.241832 -0.000000 0.625000 0.000000
0.407944 2.278407 -0.130835 -0.970318 -0.241832 -0.000000 0.625000 0.250000
-0.057819 1.041338 -0.130835 -0.695603 0.718426 0.000000 0.625000 0.250000
-0.057818 1.041338 0.130835 -0.695603 0.718426 0.000000 0.625000 0.000000
0.340472 1.426976 0.130835 -0.695603 0.718426 0.000000 0.625000 0.000000
0.340472 1.426976 -0.130835 -0.695603 0.718426 -0.000000 0.625000 0.250000
0.153164 0.933271 0.130835 0.711607 -0.702577 -0.000000 0.625000 0.750000
0.153164 0.933271 -0.130835 0.711607 -0.702577 -0.000000 0.625000 0.500000
0.522607 1.307462 -0.130835 0.711607 -0.702577 -0.000000 0.625000 0.500000
0.522607 1.307462 0.130835 0.711607 -0.702577 -0.000000 0.625000 0.750000
3 0 1 2
3 0 2 3
3 4 5 6
3 4 6 7
3 8 9 10
3 8 10 11
3 12 13 14
3 15 16 17
3 18 19 20
3 18 20 21
3 22 23 24
3 22 24 25
3 26 27 28
3 28 29 30
3 30 31 32
3 32 33 26
3 26 28 30
3 30 32 26
3 34 35 36
3 34 36 37
3 38 39 40
3 38 40 41
3 42 43 44
3 44 45 46
3 46 47 48
3 48 49 42
3 42 44 46
3 46 48 42
3 50 51 52
3 50 52 53
3 54 55 56
3 54 56 57
3 58 59 60
3 58 60 61
3 62 63 64
3 62 64 65
3 66 67 68
3 66 68 69
3 56 55 70
3 56 70 71
3 72 73 74
3 75 76 77
3 78 79 80
3 81 82 83
3 84 85 86
3 84 86 87
3 64 63 88
3 64 88 89
3 90 91 92
3 93 94 95
3 96 97 98
3 96 98 99
3 100 101 102
3 100 102 103
3 104 105 106
3 104 106 107
3 108 109 110
3 108 110 111
3 112 113 114
3 112 114 115
3 116 117 118
3 116 118 119
3 120 121 122
3 120 122 123
3 124 125 126
3 124 126 127
3 128 129 130
3 128 130 131
3 132 133 134
3 132 134 135
3 136 137 138
3 136 138 139
3 140 141 142
3 140 142 143
3 144 145 146
3 147 148 149
3 119 118 129
3 119 129 128
3 115 114 109
3 115 109 108
3 150 151 152
3 150 152 153
3 107 106 117
3 107 117 116
3 103 102 113
3 103 113 112
3 154 155 156
3 154 156 157
3 71 70 105
3 71 105 104
3 89 88 101
3 89 101 100
3 158 159 160
3 158 160 161
3 162 163 164
3 162 164 165
