# Blender v2.80 (sub 41) OBJ File: ''
# www.blender.org
mtllib sphere.mtl
o Sphere
v 0.000000 0.866025 -0.500000
v 0.000000 0.500000 -0.866025
v 0.000000 0.258819 -0.965926
v 0.000000 0.000000 -1.000000
v 0.000000 -0.258819 -0.965926
v 0.000000 -0.500000 -0.866026
v 0.000000 -0.707107 -0.707107
v 0.000000 -0.866025 -0.500000
v 0.000000 -0.965926 -0.258819
v 0.000000 -1.000000 -0.000000
v 0.129409 0.965926 -0.224144
v 0.250000 0.866025 -0.433013
v 0.353553 0.707107 -0.612372
v 0.433013 0.500000 -0.750000
v 0.482963 0.258819 -0.836516
v 0.500000 0.000000 -0.866025
v 0.482963 -0.258819 -0.836516
v 0.433013 -0.500000 -0.750000
v 0.353553 -0.707107 -0.612373
v 0.250000 -0.866025 -0.433013
v 0.129409 -0.965926 -0.224144
v 0.224144 0.965926 -0.129410
v 0.433012 0.866025 -0.250000
v 0.612372 0.707107 -0.353554
v 0.750000 0.500000 -0.433013
v 0.836516 0.258819 -0.482963
v 0.866025 0.000000 -0.500000
v 0.836516 -0.258819 -0.482963
v 0.750000 -0.500000 -0.433013
v 0.612372 -0.707107 -0.353554
v 0.433013 -0.866025 -0.250000
v 0.224144 -0.965926 -0.129410
v 0.258819 0.965926 -0.000000
v 0.500000 0.866025 -0.000000
v 0.707106 0.707107 -0.000000
v 0.866025 0.500000 -0.000000
v 0.965925 0.258819 -0.000000
v 1.000000 0.000000 -0.000000
v 0.965926 -0.258819 -0.000000
v 0.866025 -0.500000 -0.000000
v 0.707107 -0.707107 -0.000000
v 0.500000 -0.866025 -0.000000
v 0.258819 -0.965926 -0.000000
v 0.224144 0.965926 0.129409
v 0.433012 0.866025 0.249999
v 0.612372 0.707107 0.353553
v 0.750000 0.500000 0.433012
v 0.836516 0.258819 0.482962
v 0.866025 0.000000 0.499999
v 0.836516 -0.258819 0.482962
v 0.750000 -0.500000 0.433012
v 0.612372 -0.707107 0.353553
v 0.433012 -0.866025 0.250000
v 0.224144 -0.965926 0.129409
v 0.129409 0.965926 0.224143
v 0.250000 0.866025 0.433012
v 0.353553 0.707107 0.612372
v 0.433012 0.500000 0.749999
v 0.482963 0.258819 0.836516
v 0.500000 0.000000 0.866025
v 0.482963 -0.258819 0.836516
v 0.433013 -0.500000 0.749999
v 0.353553 -0.707107 0.612372
v 0.250000 -0.866025 0.433012
v 0.129409 -0.965926 0.224143
v 0.000000 0.965926 0.258818
v -0.000000 0.866025 0.499999
v -0.000000 0.707107 0.707106
v -0.000000 0.500000 0.866025
v -0.000000 0.258819 0.965925
v -0.000000 0.000000 0.999999
v -0.000000 -0.258819 0.965925
v -0.000000 -0.500000 0.866025
v -0.000000 -0.707107 0.707106
v -0.000000 -0.866025 0.499999
v 0.000000 -0.965926 0.258819
v -0.129409 0.965926 0.224143
v -0.250000 0.866025 0.433012
v -0.353553 0.707107 0.612372
v -0.433012 0.500000 0.749999
v -0.482963 0.258819 0.836516
v -0.500000 0.000000 0.866025
v -0.482963 -0.258819 0.836516
v -0.433013 -0.500000 0.749999
v -0.353553 -0.707107 0.612372
v -0.250000 -0.866025 0.433012
v -0.129409 -0.965926 0.224143
v -0.224143 0.965926 0.129409
v -0.433012 0.866025 0.249999
v -0.612372 0.707107 0.353553
v -0.750000 0.500000 0.433012
v -0.836516 0.258819 0.482962
v -0.866025 0.000000 0.499999
v -0.836516 -0.258819 0.482962
v -0.750000 -0.500000 0.433012
v -0.612372 -0.707107 0.353553
v -0.433013 -0.866025 0.249999
v -0.224144 -0.965926 0.129409
v -0.258819 0.965926 -0.000000
v -0.499999 0.866025 -0.000000
v -0.707106 0.707107 -0.000001
v -0.866025 0.500000 -0.000000
v -0.965925 0.258819 -0.000000
v -0.999999 0.000000 -0.000001
v -0.965925 -0.258819 -0.000000
v -0.866025 -0.500000 -0.000000
v -0.707107 -0.707107 -0.000000
v -0.500000 -0.866025 -0.000000
v -0.258819 -0.965926 -0.000000
v -0.224143 0.965926 -0.129410
v -0.433012 0.866025 -0.250000
v -0.612372 0.707107 -0.353554
v -0.749999 0.500000 -0.433013
v -0.836516 0.258819 -0.482963
v -0.866025 0.000000 -0.500000
v -0.836516 -0.258819 -0.482963
v -0.750000 -0.500000 -0.433013
v -0.612372 -0.707107 -0.353554
v -0.433012 -0.866025 -0.250000
v -0.224144 -0.965926 -0.129410
v -0.129409 0.965926 -0.224144
v -0.250000 0.866025 -0.433013
v -0.353553 0.707107 -0.612372
v -0.433012 0.500000 -0.750000
v -0.482963 0.258819 -0.836516
v -0.500000 0.000000 -0.866025
v -0.482963 -0.258819 -0.836516
v -0.433012 -0.500000 -0.750000
v -0.353553 -0.707107 -0.612373
v -0.250000 -0.866025 -0.433013
v -0.129409 -0.965926 -0.224144
v -0.000000 1.000000 -0.000000
v 0.000000 0.965926 -0.258819
v 0.000000 0.707107 -0.707107
vt 0.750000 0.666667
vt 0.666667 0.750000
vt 0.666667 0.666667
vt 0.750000 0.083333
vt 0.666667 0.166667
vt 0.666667 0.083333
vt 0.750000 0.916667
vt 0.708333 1.000000
vt 0.666667 0.916667
vt 0.750000 0.333333
vt 0.666667 0.416667
vt 0.666667 0.333333
vt 0.750000 0.583333
vt 0.666667 0.583333
vt 0.708333 0.000000
vt 0.750000 0.833333
vt 0.666667 0.833333
vt 0.750000 0.250000
vt 0.666667 0.250000
vt 0.750000 0.500000
vt 0.666667 0.500000
vt 0.750000 0.750000
vt 0.750000 0.166667
vt 0.750000 0.416667
vt 0.583334 0.916667
vt 0.583333 0.833333
vt 0.583333 0.333333
vt 0.583333 0.250000
vt 0.583333 0.583333
vt 0.583333 0.500000
vt 0.583333 0.750000
vt 0.583333 0.166667
vt 0.583333 0.416667
vt 0.583333 0.666667
vt 0.583334 0.083333
vt 0.625000 1.000000
vt 0.625000 0.000000
vt 0.500000 0.166667
vt 0.500000 0.083333
vt 0.541667 1.000000
vt 0.500000 0.916667
vt 0.500000 0.416667
vt 0.500000 0.333333
vt 0.500000 0.666667
vt 0.500000 0.583333
vt 0.541667 0.000000
vt 0.500000 0.833333
vt 0.500000 0.250000
vt 0.500000 0.500000
vt 0.500000 0.750000
vt 0.416667 0.833333
vt 0.416667 0.750000
vt 0.416667 0.250000
vt 0.416667 0.166667
vt 0.416667 0.500000
vt 0.416667 0.416667
vt 0.416667 0.666667
vt 0.416667 0.083333
vt 0.458334 1.000000
vt 0.416667 0.916667
vt 0.416667 0.333333
vt 0.416667 0.583333
vt 0.458334 0.000000
vt 0.375000 0.000000
vt 0.333333 0.083333
vt 0.333333 0.916667
vt 0.333333 0.833334
vt 0.333333 0.333333
vt 0.333333 0.250000
vt 0.333333 0.583333
vt 0.333333 0.500000
vt 0.333333 0.750000
vt 0.333333 0.166667
vt 0.333333 0.416667
vt 0.333333 0.666667
vt 0.375000 1.000000
vt 0.250000 0.750000
vt 0.250000 0.666667
vt 0.250000 0.166666
vt 0.250000 0.083333
vt 0.291667 1.000000
vt 0.250000 0.916667
vt 0.250000 0.416667
vt 0.250000 0.333333
vt 0.250000 0.583333
vt 0.291667 0.000000
vt 0.250000 0.833334
vt 0.250000 0.250000
vt 0.250000 0.500000
vt 0.166667 0.833334
vt 0.166667 0.750000
vt 0.166667 0.250000
vt 0.166667 0.166667
vt 0.166667 0.500000
vt 0.166667 0.416667
vt 0.166667 0.666667
vt 0.166667 0.083333
vt 0.208333 1.000000
vt 0.166667 0.916667
vt 0.166667 0.333333
vt 0.166667 0.583333
vt 0.208333 0.000000
vt 0.083333 0.666667
vt 0.083333 0.583333
vt 0.125000 0.000000
vt 0.083333 0.083333
vt 0.083333 0.916667
vt 0.083333 0.833333
vt 0.083333 0.333333
vt 0.083333 0.250000
vt 0.083333 0.500000
vt 0.083333 0.750000
vt 0.083333 0.166667
vt 0.083333 0.416667
vt 0.125000 1.000000
vt 0.000000 0.750000
vt 0.000000 0.666667
vt 0.000000 0.166667
vt 0.000000 0.083333
vt 0.041666 1.000000
vt 0.000000 0.916667
vt 0.000000 0.416667
vt 0.000000 0.333333
vt 0.000000 0.583333
vt 0.041666 0.000000
vt 0.000000 0.833333
vt 0.000000 0.250000
vt 0.000000 0.500000
vt 1.000000 0.500000
vt 0.916667 0.583333
vt 0.916667 0.500000
vt 1.000000 0.750000
vt 0.916667 0.833333
vt 0.916667 0.750000
vt 1.000000 0.166667
vt 0.916667 0.250000
vt 0.916667 0.166667
vt 1.000000 0.416667
vt 0.916667 0.416667
vt 1.000000 0.666667
vt 0.916667 0.666667
vt 1.000000 0.083333
vt 0.916666 0.083333
vt 1.000000 0.916667
vt 0.958333 1.000000
vt 0.916666 0.916667
vt 1.000000 0.333333
vt 0.916667 0.333333
vt 1.000000 0.583333
vt 0.958333 0.000000
vt 1.000000 0.833333
vt 1.000000 0.250000
vt 0.833333 0.666667
vt 0.833333 0.583333
vt 0.875000 0.000000
vt 0.833333 0.083333
vt 0.833333 0.916667
vt 0.833333 0.833333
vt 0.833333 0.333333
vt 0.833333 0.250000
vt 0.833333 0.500000
vt 0.833333 0.750000
vt 0.833333 0.166667
vt 0.833333 0.416667
vt 0.875000 1.000000
vt 0.791667 1.000000
vt 0.791667 0.000000
vn 0.2079 0.5955 -0.7760
vn 0.1020 -0.9191 -0.3807
vn 0.0350 0.9908 -0.1304
vn 0.2403 -0.3715 -0.8968
vn 0.2403 0.3715 -0.8968
vn 0.0350 -0.9908 -0.1304
vn 0.1020 0.9191 -0.3807
vn 0.2079 -0.5955 -0.7760
vn 0.2568 0.1262 -0.9582
vn 0.1610 0.7830 -0.6008
vn 0.1610 -0.7830 -0.6008
vn 0.2568 -0.1262 -0.9582
vn 0.2787 0.9191 -0.2787
vn 0.5681 -0.5955 -0.5681
vn 0.7015 0.1262 -0.7015
vn 0.4398 0.7830 -0.4398
vn 0.4398 -0.7830 -0.4398
vn 0.7015 -0.1262 -0.7015
vn 0.5681 0.5955 -0.5681
vn 0.2787 -0.9191 -0.2787
vn 0.0955 0.9908 -0.0955
vn 0.6565 -0.3715 -0.6565
vn 0.6565 0.3715 -0.6565
vn 0.0955 -0.9908 -0.0955
vn 0.3807 -0.9191 -0.1020
vn 0.1304 0.9908 -0.0350
vn 0.8968 -0.3715 -0.2403
vn 0.8968 0.3715 -0.2403
vn 0.1304 -0.9908 -0.0350
vn 0.3807 0.9191 -0.1020
vn 0.7760 -0.5955 -0.2079
vn 0.9582 0.1262 -0.2568
vn 0.6008 0.7830 -0.1610
vn 0.6008 -0.7830 -0.1610
vn 0.9582 -0.1262 -0.2568
vn 0.7760 0.5955 -0.2079
vn 0.6008 0.7830 0.1610
vn 0.6008 -0.7830 0.1610
vn 0.9582 -0.1262 0.2568
vn 0.7760 0.5955 0.2079
vn 0.3807 -0.9191 0.1020
vn 0.1304 0.9908 0.0350
vn 0.8968 -0.3715 0.2403
vn 0.8968 0.3715 0.2403
vn 0.1304 -0.9908 0.0350
vn 0.3807 0.9191 0.1020
vn 0.7760 -0.5955 0.2079
vn 0.9582 0.1262 0.2568
vn 0.0955 -0.9908 0.0955
vn 0.2787 0.9191 0.2787
vn 0.5681 -0.5955 0.5681
vn 0.7015 0.1262 0.7015
vn 0.4398 0.7830 0.4398
vn 0.4398 -0.7830 0.4398
vn 0.7015 -0.1262 0.7015
vn 0.5681 0.5955 0.5681
vn 0.2787 -0.9191 0.2787
vn 0.0955 0.9908 0.0955
vn 0.6565 -0.3715 0.6565
vn 0.6565 0.3715 0.6565
vn 0.2079 0.5955 0.7760
vn 0.1020 -0.9191 0.3807
vn 0.0350 0.9908 0.1304
vn 0.2403 -0.3715 0.8968
vn 0.2403 0.3715 0.8968
vn 0.0350 -0.9908 0.1304
vn 0.1020 0.9191 0.3807
vn 0.2079 -0.5955 0.7760
vn 0.2568 0.1262 0.9582
vn 0.1610 0.7830 0.6008
vn 0.1610 -0.7830 0.6008
vn 0.2568 -0.1262 0.9582
vn -0.1610 0.7830 0.6008
vn -0.1610 -0.7830 0.6008
vn -0.2568 -0.1262 0.9582
vn -0.2079 0.5955 0.7760
vn -0.1020 -0.9191 0.3807
vn -0.0350 0.9908 0.1304
vn -0.2403 -0.3715 0.8968
vn -0.2403 0.3715 0.8968
vn -0.0350 -0.9908 0.1304
vn -0.1020 0.9191 0.3807
vn -0.2079 -0.5955 0.7760
vn -0.2568 0.1262 0.9582
vn -0.6565 0.3715 0.6565
vn -0.0955 -0.9908 0.0955
vn -0.2787 0.9191 0.2787
vn -0.5681 -0.5955 0.5681
vn -0.7015 0.1262 0.7015
vn -0.4398 0.7830 0.4398
vn -0.4398 -0.7830 0.4398
vn -0.7015 -0.1262 0.7015
vn -0.5681 0.5955 0.5681
vn -0.2787 -0.9191 0.2787
vn -0.0955 0.9908 0.0955
vn -0.6565 -0.3715 0.6565
vn -0.7760 0.5955 0.2079
vn -0.3807 -0.9191 0.1020
vn -0.1304 0.9908 0.0350
vn -0.8968 -0.3715 0.2403
vn -0.8968 0.3715 0.2403
vn -0.1304 -0.9908 0.0350
vn -0.3807 0.9191 0.1020
vn -0.7760 -0.5955 0.2079
vn -0.9582 0.1261 0.2568
vn -0.6008 0.7830 0.1610
vn -0.6008 -0.7830 0.1610
vn -0.9582 -0.1262 0.2568
vn -0.9582 0.1262 -0.2568
vn -0.6008 0.7830 -0.1610
vn -0.6008 -0.7830 -0.1610
vn -0.9582 -0.1262 -0.2568
vn -0.7760 0.5955 -0.2079
vn -0.3807 -0.9191 -0.1020
vn -0.1304 0.9908 -0.0350
vn -0.8968 -0.3715 -0.2403
vn -0.8968 0.3715 -0.2403
vn -0.1304 -0.9908 -0.0350
vn -0.3807 0.9191 -0.1020
vn -0.7760 -0.5955 -0.2079
vn -0.6565 0.3715 -0.6565
vn -0.0955 -0.9908 -0.0955
vn -0.2787 0.9191 -0.2787
vn -0.5681 -0.5955 -0.5681
vn -0.7015 0.1262 -0.7015
vn -0.4398 0.7830 -0.4398
vn -0.4398 -0.7830 -0.4398
vn -0.7015 -0.1262 -0.7015
vn -0.5681 0.5955 -0.5681
vn -0.2787 -0.9191 -0.2787
vn -0.0955 0.9908 -0.0955
vn -0.6565 -0.3715 -0.6565
vn -0.2568 -0.1262 -0.9582
vn -0.2079 0.5955 -0.7760
vn -0.1020 -0.9191 -0.3807
vn -0.0350 0.9908 -0.1304
vn -0.2403 -0.3715 -0.8968
vn -0.2403 0.3715 -0.8968
vn -0.0350 -0.9908 -0.1304
vn -0.1020 0.9191 -0.3807
vn -0.2079 -0.5955 -0.7760
vn -0.2568 0.1262 -0.9582
vn -0.1610 0.7830 -0.6008
vn -0.1610 -0.7830 -0.6008
vn 0.9582 -0.1261 0.2568
vn -0.9582 0.1262 0.2568
usemtl None
s off
f 2/1/1 13/2/1 14/3/1
f 9/4/2 20/5/2 21/6/2
f 133/7/3 132/8/3 11/9/3
f 6/10/4 17/11/4 18/12/4
f 3/13/5 14/3/5 15/14/5
f 10/15/6 9/4/6 21/6/6
f 1/16/7 11/9/7 12/17/7
f 7/18/8 18/12/8 19/19/8
f 4/20/9 15/14/9 16/21/9
f 134/22/10 12/17/10 13/2/10
f 8/23/11 19/19/11 20/5/11
f 5/24/12 16/21/12 17/11/12
f 12/17/13 22/25/13 23/26/13
f 19/19/14 29/27/14 30/28/14
f 16/21/15 26/29/15 27/30/15
f 13/2/16 23/26/16 24/31/16
f 20/5/17 30/28/17 31/32/17
f 17/11/18 27/30/18 28/33/18
f 14/3/19 24/31/19 25/34/19
f 21/6/20 31/32/20 32/35/20
f 11/9/21 132/36/21 22/25/21
f 18/12/22 28/33/22 29/27/22
f 15/14/23 25/34/23 26/29/23
f 10/37/24 21/6/24 32/35/24
f 32/35/25 42/38/25 43/39/25
f 22/25/26 132/40/26 33/41/26
f 29/27/27 39/42/27 40/43/27
f 26/29/28 36/44/28 37/45/28
f 10/46/29 32/35/29 43/39/29
f 23/26/30 33/41/30 34/47/30
f 30/28/31 40/43/31 41/48/31
f 27/30/32 37/45/32 38/49/32
f 24/31/33 34/47/33 35/50/33
f 31/32/34 41/48/34 42/38/34
f 28/33/35 38/49/35 39/42/35
f 25/34/36 35/50/36 36/44/36
f 35/50/37 45/51/37 46/52/37
f 42/38/38 52/53/38 53/54/38
f 39/42/39 49/55/39 50/56/39
f 36/44/40 46/52/40 47/57/40
f 43/39/41 53/54/41 54/58/41
f 33/41/42 132/59/42 44/60/42
f 40/43/43 50/56/43 51/61/43
f 37/45/44 47/57/44 48/62/44
f 10/63/45 43/39/45 54/58/45
f 34/47/46 44/60/46 45/51/46
f 41/48/47 51/61/47 52/53/47
f 38/49/48 48/62/48 49/55/48
f 10/64/49 54/58/49 65/65/49
f 45/51/50 55/66/50 56/67/50
f 52/53/51 62/68/51 63/69/51
f 49/55/52 59/70/52 60/71/52
f 46/52/53 56/67/53 57/72/53
f 53/54/54 63/69/54 64/73/54
f 50/56/55 60/71/55 61/74/55
f 47/57/56 57/72/56 58/75/56
f 54/58/57 64/73/57 65/65/57
f 44/60/58 132/76/58 55/66/58
f 51/61/59 61/74/59 62/68/59
f 48/62/60 58/75/60 59/70/60
f 58/75/61 68/77/61 69/78/61
f 65/65/62 75/79/62 76/80/62
f 55/66/63 132/81/63 66/82/63
f 62/68/64 72/83/64 73/84/64
f 59/70/65 69/78/65 70/85/65
f 10/86/66 65/65/66 76/80/66
f 56/67/67 66/82/67 67/87/67
f 63/69/68 73/84/68 74/88/68
f 60/71/69 70/85/69 71/89/69
f 57/72/70 67/87/70 68/77/70
f 64/73/71 74/88/71 75/79/71
f 61/74/72 71/89/72 72/83/72
f 68/77/73 78/90/73 79/91/73
f 75/79/74 85/92/74 86/93/74
f 72/83/75 82/94/75 83/95/75
f 69/78/76 79/91/76 80/96/76
f 76/80/77 86/93/77 87/97/77
f 66/82/78 132/98/78 77/99/78
f 73/84/79 83/95/79 84/100/79
f 70/85/80 80/96/80 81/101/80
f 10/102/81 76/80/81 87/97/81
f 67/87/82 77/99/82 78/90/82
f 74/88/83 84/100/83 85/92/83
f 71/89/84 81/101/84 82/94/84
f 81/101/85 91/103/85 92/104/85
f 10/105/86 87/97/86 98/106/86
f 78/90/87 88/107/87 89/108/87
f 85/92/88 95/109/88 96/110/88
f 82/94/89 92/104/89 93/111/89
f 79/91/90 89/108/90 90/112/90
f 86/93/91 96/110/91 97/113/91
f 83/95/92 93/111/92 94/114/92
f 80/96/93 90/112/93 91/103/93
f 87/97/94 97/113/94 98/106/94
f 77/99/95 132/115/95 88/107/95
f 84/100/96 94/114/96 95/109/96
f 91/103/97 101/116/97 102/117/97
f 98/106/98 108/118/98 109/119/98
f 88/107/99 132/120/99 99/121/99
f 95/109/100 105/122/100 106/123/100
f 92/104/101 102/117/101 103/124/101
f 10/125/102 98/106/102 109/119/102
f 89/108/103 99/121/103 100/126/103
f 96/110/104 106/123/104 107/127/104
f 93/111/105 103/124/105 104/128/105
f 90/112/106 100/126/106 101/116/106
f 97/113/107 107/127/107 108/118/107
f 94/114/108 104/128/108 105/122/108
f 104/129/109 114/130/109 115/131/109
f 101/132/110 111/133/110 112/134/110
f 108/135/111 118/136/111 119/137/111
f 105/138/112 115/131/112 116/139/112
f 102/140/113 112/134/113 113/141/113
f 109/142/114 119/137/114 120/143/114
f 99/144/115 132/145/115 110/146/115
f 106/147/116 116/139/116 117/148/116
f 103/149/117 113/141/117 114/130/117
f 10/150/118 109/142/118 120/143/118
f 100/151/119 110/146/119 111/133/119
f 107/152/120 117/148/120 118/136/120
f 114/130/121 124/153/121 125/154/121
f 10/155/122 120/143/122 131/156/122
f 111/133/123 121/157/123 122/158/123
f 118/136/124 128/159/124 129/160/124
f 115/131/125 125/154/125 126/161/125
f 112/134/126 122/158/126 123/162/126
f 119/137/127 129/160/127 130/163/127
f 116/139/128 126/161/128 127/164/128
f 113/141/129 123/162/129 124/153/129
f 120/143/130 130/163/130 131/156/130
f 110/146/131 132/165/131 121/157/131
f 117/148/132 127/164/132 128/159/132
f 127/164/133 4/20/133 5/24/133
f 124/153/134 134/22/134 2/1/134
f 131/156/135 8/23/135 9/4/135
f 121/157/136 132/166/136 133/7/136
f 128/159/137 5/24/137 6/10/137
f 125/154/138 2/1/138 3/13/138
f 10/167/139 131/156/139 9/4/139
f 122/158/140 133/7/140 1/16/140
f 129/160/141 6/10/141 7/18/141
f 126/161/142 3/13/142 4/20/142
f 123/162/143 1/16/143 134/22/143
f 130/163/144 7/18/144 8/23/144
f 2/1/1 134/22/1 13/2/1
f 9/4/2 8/23/2 20/5/2
f 6/10/4 5/24/4 17/11/4
f 3/13/5 2/1/5 14/3/5
f 1/16/7 133/7/7 11/9/7
f 7/18/8 6/10/8 18/12/8
f 4/20/9 3/13/9 15/14/9
f 134/22/10 1/16/10 12/17/10
f 8/23/11 7/18/11 19/19/11
f 5/24/12 4/20/12 16/21/12
f 12/17/13 11/9/13 22/25/13
f 19/19/14 18/12/14 29/27/14
f 16/21/15 15/14/15 26/29/15
f 13/2/16 12/17/16 23/26/16
f 20/5/17 19/19/17 30/28/17
f 17/11/18 16/21/18 27/30/18
f 14/3/19 13/2/19 24/31/19
f 21/6/20 20/5/20 31/32/20
f 18/12/22 17/11/22 28/33/22
f 15/14/23 14/3/23 25/34/23
f 32/35/25 31/32/25 42/38/25
f 29/27/27 28/33/27 39/42/27
f 26/29/28 25/34/28 36/44/28
f 23/26/30 22/25/30 33/41/30
f 30/28/31 29/27/31 40/43/31
f 27/30/32 26/29/32 37/45/32
f 24/31/33 23/26/33 34/47/33
f 31/32/34 30/28/34 41/48/34
f 28/33/35 27/30/35 38/49/35
f 25/34/36 24/31/36 35/50/36
f 35/50/37 34/47/37 45/51/37
f 42/38/38 41/48/38 52/53/38
f 39/42/145 38/49/145 49/55/145
f 36/44/40 35/50/40 46/52/40
f 43/39/41 42/38/41 53/54/41
f 40/43/43 39/42/43 50/56/43
f 37/45/44 36/44/44 47/57/44
f 34/47/46 33/41/46 44/60/46
f 41/48/47 40/43/47 51/61/47
f 38/49/48 37/45/48 48/62/48
f 45/51/50 44/60/50 55/66/50
f 52/53/51 51/61/51 62/68/51
f 49/55/52 48/62/52 59/70/52
f 46/52/53 45/51/53 56/67/53
f 53/54/54 52/53/54 63/69/54
f 50/56/55 49/55/55 60/71/55
f 47/57/56 46/52/56 57/72/56
f 54/58/57 53/54/57 64/73/57
f 51/61/59 50/56/59 61/74/59
f 48/62/60 47/57/60 58/75/60
f 58/75/61 57/72/61 68/77/61
f 65/65/62 64/73/62 75/79/62
f 62/68/64 61/74/64 72/83/64
f 59/70/65 58/75/65 69/78/65
f 56/67/67 55/66/67 66/82/67
f 63/69/68 62/68/68 73/84/68
f 60/71/69 59/70/69 70/85/69
f 57/72/70 56/67/70 67/87/70
f 64/73/71 63/69/71 74/88/71
f 61/74/72 60/71/72 71/89/72
f 68/77/73 67/87/73 78/90/73
f 75/79/74 74/88/74 85/92/74
f 72/83/75 71/89/75 82/94/75
f 69/78/76 68/77/76 79/91/76
f 76/80/77 75/79/77 86/93/77
f 73/84/79 72/83/79 83/95/79
f 70/85/80 69/78/80 80/96/80
f 67/87/82 66/82/82 77/99/82
f 74/88/83 73/84/83 84/100/83
f 71/89/84 70/85/84 81/101/84
f 81/101/85 80/96/85 91/103/85
f 78/90/87 77/99/87 88/107/87
f 85/92/88 84/100/88 95/109/88
f 82/94/89 81/101/89 92/104/89
f 79/91/90 78/90/90 89/108/90
f 86/93/91 85/92/91 96/110/91
f 83/95/92 82/94/92 93/111/92
f 80/96/93 79/91/93 90/112/93
f 87/97/94 86/93/94 97/113/94
f 84/100/96 83/95/96 94/114/96
f 91/103/97 90/112/97 101/116/97
f 98/106/98 97/113/98 108/118/98
f 95/109/100 94/114/100 105/122/100
f 92/104/101 91/103/101 102/117/101
f 89/108/103 88/107/103 99/121/103
f 96/110/104 95/109/104 106/123/104
f 93/111/146 92/104/146 103/124/146
f 90/112/106 89/108/106 100/126/106
f 97/113/107 96/110/107 107/127/107
f 94/114/108 93/111/108 104/128/108
f 104/129/109 103/149/109 114/130/109
f 101/132/110 100/151/110 111/133/110
f 108/135/111 107/152/111 118/136/111
f 105/138/112 104/129/112 115/131/112
f 102/140/113 101/132/113 112/134/113
f 109/142/114 108/135/114 119/137/114
f 106/147/116 105/138/116 116/139/116
f 103/149/117 102/140/117 113/141/117
f 100/151/119 99/144/119 110/146/119
f 107/152/120 106/147/120 117/148/120
f 114/130/121 113/141/121 124/153/121
f 111/133/123 110/146/123 121/157/123
f 118/136/124 117/148/124 128/159/124
f 115/131/125 114/130/125 125/154/125
f 112/134/126 111/133/126 122/158/126
f 119/137/127 118/136/127 129/160/127
f 116/139/128 115/131/128 126/161/128
f 113/141/129 112/134/129 123/162/129
f 120/143/130 119/137/130 130/163/130
f 117/148/132 116/139/132 127/164/132
f 127/164/133 126/161/133 4/20/133
f 124/153/134 123/162/134 134/22/134
f 131/156/135 130/163/135 8/23/135
f 128/159/137 127/164/137 5/24/137
f 125/154/138 124/153/138 2/1/138
f 122/158/140 121/157/140 133/7/140
f 129/160/141 128/159/141 6/10/141
f 126/161/142 125/154/142 3/13/142
f 123/162/143 122/158/143 1/16/143
f 130/163/144 129/160/144 7/18/144
